<?xml version="1.0" encoding="utf-8"?>
<!-- Svg Vector Icons : http://www.onlinewebfonts.com/icon -->
<!DOCTYPE svg PUBLIC "-//W3C//DTD SVG 1.1//EN" "http://www.w3.org/Graphics/SVG/1.1/DTD/svg11.dtd">
<svg version="1.1" xmlns="http://www.w3.org/2000/svg" xmlns:xlink="http://www.w3.org/1999/xlink" x="0px" y="0px" viewBox="0 0 1000 1000" enable-background="new 0 0 1000 1000" xml:space="preserve">
<metadata> Svg Vector Icons : http://www.onlinewebfonts.com/icon </metadata>
<g><g transform="translate(0.000000,511.000000) scale(0.100000,-0.100000)"><path d="M4613.4,4990.3c-768.3-81.7-1526.5-414.8-2106.8-929.8c-472-418.9-848-976.8-1052.4-1563.2c-392.4-1128-241.1-2290.7,449.6-3449.4c300.4-502.7,696.8-1005.4,1542.8-1953.5c711.1-797,1220-1424.3,1442.7-1777.8c92-143,128.7-143,222.7,6.1c102.2,161.4,523.1,713.2,750,985c118.5,141,441.4,510.9,719.3,825.6c764.2,860.3,1052.4,1213.8,1354.8,1667.5c931.8,1391.6,1074.8,2844.5,412.8,4148.2C7977,3678.4,7415,4238.3,6685.5,4604.1C6031.6,4931,5322.5,5063.8,4613.4,4990.3z M5255.1,3457.7c157.3-59.3,316.7-208.4,390.3-369.9c47-108.3,57.2-155.3,57.2-292.2c0-194.1-45-308.6-212.5-531.3c-130.8-175.7-181.8-282-183.9-382.1v-77.6l139-4.1c345.3-10.2,331,2,331-265.6c0-286.1,4.1-282-255.4-282h-214.6V678.6V102.3l102.2,14.3c214.6,28.6,525.2,165.5,705,310.6l61.3,49h-145.1c-104.2,0-153.3,8.2-171.7,30.7c-59.2,73.6-8.2,116.5,484.3,418.9c265.6,163.5,498.6,298.3,519,302.4c18.4,4.1,49-14.3,67.5-40.9c28.6-38.8,32.7-124.6,32.7-594.6c0-339.2-8.2-564-20.4-588.5c-12.2-22.5-42.9-38.8-71.5-38.8c-47,0-67.4,22.5-230.9,245.2c-4.1,4.1-30.7-22.5-61.3-61.3c-114.4-149.2-320.8-349.4-465.9-449.6c-81.7-57.2-282-173.7-441.4-257.5c-300.4-159.4-498.6-290.2-586.5-384.2c-28.6-28.6-65.4-53.1-83.8-53.1s-55.2,24.5-83.8,53.1c-87.9,94-286.1,224.8-586.5,384.2C4170-473.9,3969.7-357.5,3888-300.2c-145.1,100.1-351.5,300.4-465.9,449.6c-30.7,38.8-57.2,65.4-61.3,61.3C3197.3-12.1,3176.9-34.6,3129.9-34.6c-28.6,0-59.3,16.3-71.5,38.8c-12.3,24.5-20.4,249.3-20.4,588.5c0,470,4.1,555.8,32.7,594.6c18.4,26.6,49,45,67.4,40.9c20.4-4.1,253.4-138.9,519-302.4c492.5-302.4,543.6-345.4,484.3-418.9c-18.4-22.5-67.4-30.7-171.7-30.7l-145.1-2l57.2-45c171.7-141,496.6-284,709.1-312.7l102.2-14.3v576.3v574.2h-214.6c-259.5,0-255.4-4.1-255.4,282c0,230.9,14.3,257.5,141,259.5c40.9,2,130.8,4.1,202.3,6.1l126.7,4.1v71.5c0,102.2-42.9,192.1-181.9,384.2c-177.8,245.2-214.6,337.2-214.6,535.4c0,136.9,8.2,183.9,57.2,292.2c73.6,157.3,233,310.6,386.2,369.9C4887.3,3512.8,5103.9,3514.9,5255.1,3457.7z"/><path d="M4866.8,3190c-294.3-108.3-369.9-478.2-138.9-694.8c75.6-71.5,149.2-98.1,273.8-98.1c130.8,0,218.6,36.8,298.3,128.7c228.9,261.6,69.5,658-277.9,680.5C4971,3210.4,4901.6,3204.3,4866.8,3190z"/></g></g>
</svg>