<?xml version="1.0" encoding="iso-8859-1"?>
<!-- Generator: Adobe Illustrator 19.0.0, SVG Export Plug-In . SVG Version: 6.00 Build 0)  -->
<svg version="1.1" id="Layer_1" xmlns="http://www.w3.org/2000/svg" xmlns:xlink="http://www.w3.org/1999/xlink" x="0px" y="0px"
	 viewBox="0 0 511.999 511.999" style="enable-background:new 0 0 511.999 511.999;" xml:space="preserve">
<polyline style="fill:#CFF09E;" points="228.316,350.527 443.769,328.219 78.259,15.552 "/>
<g>
	<path style="fill:#507C5C;" d="M459.157,330.405c0.093-0.663,0.154-1.329,0.162-1.996c0.002-0.093-0.008-0.187-0.008-0.282
		c-0.003-0.583-0.044-1.164-0.112-1.742c-0.019-0.163-0.037-0.327-0.062-0.49c-0.098-0.65-0.229-1.296-0.409-1.931
		c-0.02-0.07-0.047-0.137-0.067-0.205c-0.174-0.585-0.389-1.159-0.633-1.722c-0.054-0.128-0.109-0.254-0.166-0.38
		c-0.286-0.616-0.605-1.22-0.975-1.8c-0.017-0.026-0.037-0.051-0.054-0.078c-0.347-0.537-0.739-1.05-1.157-1.548
		c-0.106-0.126-0.213-0.25-0.324-0.375c-0.456-0.509-0.936-1.002-1.47-1.459L88.372,3.729c-0.516-0.442-1.059-0.829-1.615-1.193
		c-0.143-0.093-0.286-0.18-0.431-0.268c-0.488-0.297-0.986-0.566-1.497-0.804c-0.087-0.04-0.171-0.089-0.26-0.128
		c-0.61-0.271-1.232-0.498-1.862-0.686c-0.112-0.033-0.226-0.059-0.338-0.089c-0.541-0.148-1.087-0.266-1.638-0.355
		c-0.134-0.022-0.266-0.047-0.401-0.065C79.69,0.056,79.046,0.006,78.402,0c-0.107-0.002-0.213,0.008-0.32,0.009
		c-0.552,0.006-1.103,0.045-1.654,0.109c-0.162,0.019-0.322,0.037-0.482,0.061c-0.647,0.096-1.29,0.226-1.921,0.404
		c-0.039,0.011-0.078,0.026-0.117,0.039c-0.618,0.179-1.223,0.406-1.817,0.663c-0.062,0.026-0.128,0.042-0.19,0.07
		c-0.051,0.023-0.096,0.056-0.148,0.079c-1.207,0.554-2.351,1.269-3.404,2.144c-0.128,0.106-0.252,0.215-0.376,0.324
		c-0.395,0.35-0.773,0.722-1.137,1.117c-0.096,0.104-0.198,0.201-0.291,0.306c-0.034,0.039-0.072,0.073-0.106,0.112
		c-0.394,0.46-0.748,0.94-1.078,1.431c-0.072,0.106-0.132,0.216-0.201,0.324c-0.299,0.468-0.569,0.946-0.814,1.436
		c-0.064,0.129-0.129,0.257-0.19,0.387c-0.565,1.216-0.96,2.484-1.192,3.775c-0.026,0.149-0.05,0.297-0.073,0.448
		c-0.096,0.641-0.163,1.283-0.179,1.929c0,0.02-0.005,0.039-0.006,0.059v0.036c0,0.003,0,0.006,0,0.008L52.683,496.119
		c-0.129,6.219,3.458,11.918,9.121,14.487c2.061,0.936,4.252,1.392,6.429,1.392c3.802,0,7.559-1.394,10.482-4.059l108.198-98.625
		c6.35-5.788,6.806-15.626,1.017-21.976c-5.788-6.348-15.625-6.803-21.976-1.017l-81.41,74.208l8.585-411.788l312.985,267.738
		l-168.203,17.415l-76.849-171.555c-3.511-7.84-12.719-11.35-20.556-7.837c-7.84,3.513-11.35,12.716-7.837,20.556l81.451,181.829
		c0.023,0.053,0.056,0.096,0.081,0.148c0.59,1.277,1.341,2.455,2.232,3.509c0.101,0.12,0.199,0.241,0.303,0.356
		c0.42,0.468,0.865,0.912,1.336,1.325c0.115,0.101,0.236,0.193,0.353,0.289c0.431,0.355,0.877,0.688,1.344,0.994
		c0.093,0.061,0.184,0.129,0.277,0.188c0.548,0.344,1.12,0.649,1.71,0.924c0.11,0.051,0.222,0.1,0.333,0.148
		c1.207,0.529,2.489,0.908,3.822,1.115c0.138,0.022,0.275,0.04,0.415,0.059c0.644,0.082,1.294,0.14,1.957,0.14
		c0.014,0,0.026,0.003,0.04,0.003c0.557,0,1.115-0.034,1.675-0.095l215.373-22.298c0.092-0.009,0.179-0.037,0.269-0.048
		c0.593-0.072,1.179-0.176,1.761-0.316c0.112-0.026,0.226-0.047,0.338-0.076c0.647-0.17,1.282-0.387,1.906-0.641
		c0.124-0.051,0.244-0.107,0.367-0.162c0.548-0.24,1.083-0.51,1.604-0.814c0.081-0.048,0.166-0.09,0.246-0.138
		c0.571-0.348,1.122-0.737,1.652-1.165c0.106-0.086,0.205-0.177,0.308-0.266c0.409-0.348,0.803-0.722,1.182-1.118
		c0.124-0.129,0.249-0.255,0.369-0.389c0.07-0.079,0.148-0.148,0.216-0.229c0.369-0.429,0.705-0.876,1.017-1.333
		c0.042-0.062,0.078-0.129,0.118-0.191c0.347-0.521,0.652-1.059,0.929-1.609c0.065-0.129,0.129-0.258,0.191-0.39
		c0.3-0.641,0.566-1.291,0.773-1.957v-0.002c0-0.003,0-0.005,0.002-0.008c0.205-0.66,0.352-1.33,0.465-2.004
		C459.112,330.694,459.137,330.551,459.157,330.405z"/>
	<path style="fill:#507C5C;" d="M268.118,454.92c-5.944,0-11.619-3.425-14.206-9.202l-16.959-37.862
		c-3.513-7.84-0.003-17.045,7.837-20.556c7.839-3.508,17.043-0.002,20.556,7.839l16.959,37.862
		c3.513,7.84,0.003,17.045-7.837,20.556C272.403,454.483,270.244,454.92,268.118,454.92z"/>
	<path style="fill:#507C5C;" d="M292.499,509.348c-5.944,0-11.619-3.425-14.206-9.2l-5.403-12.058
		c-3.513-7.84-0.005-17.045,7.836-20.556c7.843-3.513,17.045-0.003,20.558,7.837l5.403,12.058c3.513,7.84,0.005,17.045-7.836,20.556
		C296.785,508.909,294.624,509.348,292.499,509.348z"/>
</g>
<g>
</g>
<g>
</g>
<g>
</g>
<g>
</g>
<g>
</g>
<g>
</g>
<g>
</g>
<g>
</g>
<g>
</g>
<g>
</g>
<g>
</g>
<g>
</g>
<g>
</g>
<g>
</g>
<g>
</g>
</svg>
