<?xml version="1.0" encoding="iso-8859-1"?>
<!-- Generator: Adobe Illustrator 19.1.0, SVG Export Plug-In . SVG Version: 6.00 Build 0)  -->
<svg version="1.1" id="Capa_1" xmlns="http://www.w3.org/2000/svg" xmlns:xlink="http://www.w3.org/1999/xlink" x="0px" y="0px"
	 viewBox="0 0 450.492 450.492" style="enable-background:new 0 0 450.492 450.492;" xml:space="preserve">
<g>
	<g>
		<g>
			<path style="fill:#010002;" d="M246.233,94.096c0-11.402-9.536-20.644-21.309-20.644c-11.734,0-21.231,9.252-21.231,20.644
				s9.506,20.644,21.231,20.644C236.716,114.731,246.233,105.488,246.233,94.096z M50.605,0v349.293H160.49l64.757,101.199
				l64.766-101.199h109.875V0H50.605z M328.585,256.33l-21.016-20.4c-14.577,11.988-27.65,42.549-84.483,43.985
				c-45.119,0-63.955-27.767-80.565-41.181l-19.189,18.612l-10.962-70.042l72.172,10.63l-19.882,19.296
				c0,0,17.068,28.373,46.516,30.336l-0.068-115.317c-15.906-5.53-27.376-20.185-27.376-37.547c0-22.1,18.446-40.028,41.23-40.028
				c22.804,0,41.269,17.918,41.269,40.028c0,17.645-11.812,32.437-28.138,37.752c0.117,22.51,0.459,115.542-0.02,115.542
				c24.425-0.674,47.249-33.678,47.249-33.678l-18.622-18.055L339,185.643L328.585,256.33z"/>
		</g>
	</g>
</g>
<g>
</g>
<g>
</g>
<g>
</g>
<g>
</g>
<g>
</g>
<g>
</g>
<g>
</g>
<g>
</g>
<g>
</g>
<g>
</g>
<g>
</g>
<g>
</g>
<g>
</g>
<g>
</g>
<g>
</g>
</svg>
